<svg xmlns="http://www.w3.org/2000/svg" xmlns:xlink="http://www.w3.org/1999/xlink" width="22.788" height="13.824" viewBox="0 0 22.788 13.824">
  <defs>
    <linearGradient id="linear-gradient" x1="0.5" x2="0.5" y2="1" gradientUnits="objectBoundingBox">
      <stop offset="0" stop-color="#fff"/>
      <stop offset="1" stop-color="#05defc"/>
    </linearGradient>
    <clipPath id="clip-path">
      <path id="Caminho_4" data-name="Caminho 4" d="M505.943,91.657v-12.6h.248l7.627,9.64v-9.64h1.151v12.6h-.261L507.126,82.1v9.555Z" transform="translate(-505.943 -79.054)" fill="url(#linear-gradient)"/>
    </clipPath>
    <clipPath id="clip-path-2">
      <path id="Caminho_8" data-name="Caminho 8" d="M401.418,79.054h2.071l4.941,8.294V79.054H410.6v12.6h-2.087l-4.925-8.268v8.268h-2.172Z" transform="translate(-401.418 -79.054)" fill="url(#linear-gradient)"/>
    </clipPath>
  </defs>
  <g id="Grupo_190" data-name="Grupo 190" transform="translate(-2.066 -0.613)">
    <g id="Grupo_9" data-name="Grupo 9" transform="translate(3.099 0.613)">
      <g id="Grupo_5" data-name="Grupo 5" transform="translate(11.54 0.001)">
        <path id="Caminho_1" data-name="Caminho 1" d="M505.943,91.657v-12.6h.248l7.627,9.64v-9.64h1.151v12.6h-.261L507.126,82.1v9.555Z" transform="translate(-505.943 -79.054)" fill="url(#linear-gradient)"/>
        <g id="Grupo_4" data-name="Grupo 4">
          <path id="Caminho_2" data-name="Caminho 2" d="M505.943,91.657v-12.6h.248l7.627,9.64v-9.64h1.151v12.6h-.261L507.126,82.1v9.555Z" transform="translate(-505.943 -79.054)" fill="url(#linear-gradient)"/>
          <g id="Grupo_3" data-name="Grupo 3" clip-path="url(#clip-path)">
            <path id="Caminho_3" data-name="Caminho 3" d="M536.58,54.381v3.341l5.3-2.579a2.021,2.021,0,0,1,.381.713c-.179.161-5.125,2.584-5.671,2.822l-.012.582c.4-.088,3.305-1.613,4.132-2.022.965-.478.541-.355,2.566.613,1.1.525,2.242,1.078,3.29,1.631a34.185,34.185,0,0,0,3.365,1.639V57.749l.837,0v3.8l.561.3,0-2.973.829.005.015,3.373,1.464.756-.353.739-1.1-.517-.009,16.57.724.01.016.812-48.475.019-.025-.825,7.759-.012.008-10.338-4.268-.026-.017-.825c.825-.05,3.8.106,4.287-.056v-1.28h10.812l.021-21.216,3.388,2.066c1.1.718,2.294,1.406,3.4,2.095l5.893,3.633a9.807,9.807,0,0,0,.879.526m-3.789,5.212,2.946-1.432.008-3.007c0-.4.048-.251-.575-.64-.261-.163-.485-.3-.753-.462-3.379-2-7.24-4.6-10.556-6.49l-.014,19.721h3l.024-2.16.835-.029v2.174l1.37.015V68.6l1.269.007.034.832-1.271.005c-.078.343-.074,10.049,0,10.361l2.824,0,.017-17.24-2.469,1.19-.4-.735,2.864-1.425,0-.6-2.21,1.052a2.824,2.824,0,0,1-.372-.742l2.581-1.277V57.743l.839.008Zm2.953-.468-2.938,1.406-.013.619,2.952-1.439Zm-8.867,8.988h-3.025l0,.487,3.024,0Zm-3.863.014-9.992-.014,0,.489,10,0Zm5.237.01-.541-.014.012.476.5,0ZM544.274,79.8l5.634.007.021-17.617a7.141,7.141,0,0,0-1.6-.887c-.559-.3-1.1-.538-1.669-.827l-5.042-2.5c-.4-.2-.858.2-1.653.579-1.129.544-2.252,1.1-3.378,1.672l-.01,19.581,2.2,0,.024-5.988,5.462-.007Zm-.836-5.152h-3.792l0,5.149,3.8.012Zm-16.561-5.2h-3.026l0,10.357,3.026.007Zm23.914-6.908-.029,17.274.546-.01.028-16.725C551.327,62.634,551.181,62.727,550.791,62.535Zm-15.044-1.867a19.861,19.861,0,0,0-2.954,1.518V79.81l2.931-.007Zm-7.5,8.779h-.516l-.018,10.346.514.009Zm-5.226.05c-.07-.109.009-.089-.508-.083-1.48.016-9.031-.065-9.494.03L513,79.8c.473.121,7.674.026,9.449.036l.443-.009c.155-.042.042.012.129-.079Z" transform="translate(-505.418 -67.64)" fill-rule="evenodd" fill="url(#linear-gradient)"/>
          </g>
        </g>
      </g>
      <g id="Grupo_8" data-name="Grupo 8">
        <path id="Caminho_5" data-name="Caminho 5" d="M401.418,79.052h2.071l4.941,8.294V79.052H410.6v12.6h-2.087l-4.925-8.268v8.268h-2.172Z" transform="translate(-401.418 -79.052)" fill="url(#linear-gradient)"/>
        <g id="Grupo_7" data-name="Grupo 7" transform="translate(0 0.001)">
          <path id="Caminho_6" data-name="Caminho 6" d="M401.418,79.054h2.071l4.941,8.294V79.054H410.6v12.6h-2.087l-4.925-8.268v8.268h-2.172Z" transform="translate(-401.418 -79.054)" fill="url(#linear-gradient)"/>
          <g id="Grupo_6" data-name="Grupo 6" clip-path="url(#clip-path-2)">
            <path id="Caminho_7" data-name="Caminho 7" d="M416.419,53.641v3.342l-5.3-2.579a2.01,2.01,0,0,0-.38.713c.178.16,5.124,2.583,5.671,2.822l.012.583c-.4-.088-3.306-1.613-4.132-2.022-.965-.478-.542-.356-2.565.613-1.1.525-2.242,1.078-3.291,1.631a34.331,34.331,0,0,1-3.365,1.639V57.01l-.837,0v3.8l-.561.3,0-2.973-.829.005-.015,3.374-1.464.756.353.739,1.1-.517.009,16.57-.724.009-.015.812,48.474.02.025-.825-7.759-.012-.008-10.337,4.268-.026.017-.825c-.825-.05-3.8.106-4.287-.056l0-1.28H430l-.021-21.216L426.6,47.388c-1.1.718-2.294,1.406-3.405,2.094L417.3,53.116a9.917,9.917,0,0,1-.88.525m3.79,5.212-2.947-1.432-.008-3.007c0-.4-.047-.251.575-.64.261-.163.485-.3.753-.463,3.378-2,7.24-4.6,10.556-6.49l.014,19.721h-3l-.024-2.16-.835-.028v2.173l-1.37.016v1.317l-1.27.007-.034.831,1.271.006c.078.343.074,10.049,0,10.361l-2.824,0-.018-17.24,2.469,1.19.4-.735-2.864-1.426,0-.6,2.21,1.052a2.777,2.777,0,0,0,.372-.743l-2.58-1.277V57l-.839.007Zm-2.954-.468,2.938,1.405.013.619-2.952-1.439Zm8.867,8.988h3.025l0,.487-3.024,0Zm3.863.014,9.992-.014,0,.489-10,0Zm-5.237.011.541-.014-.012.476-.5,0ZM408.725,79.057l-5.634.007-.021-17.617a7.191,7.191,0,0,1,1.6-.887c.559-.3,1.1-.537,1.669-.827l5.042-2.5c.4-.2.858.2,1.653.579,1.129.544,2.252,1.105,3.378,1.672l.01,19.581-2.2,0-.024-5.988-5.463-.007Zm.835-5.152h3.793l0,5.149-3.8.011Zm16.562-5.2h3.027V79.059l-3.026.007ZM402.209,61.8l.028,17.275-.546-.01-.027-16.725C401.673,61.894,401.818,61.988,402.209,61.8Zm15.043-1.866a19.928,19.928,0,0,1,2.955,1.518V79.07l-2.931-.007Zm7.5,8.779h.515l.018,10.346-.514.009Zm5.227.05c.069-.11-.01-.089.508-.083,1.479.016,9.031-.066,9.493.029L440,79.061c-.473.121-7.674.026-9.449.036l-.443-.009c-.155-.043-.041.012-.129-.079Z" transform="translate(-400.711 -67.386)" fill-rule="evenodd" fill="url(#linear-gradient)"/>
          </g>
        </g>
      </g>
    </g>
    <path id="Caminho_9" data-name="Caminho 9" d="M420.822,104.956a.112.112,0,1,0-.112.111.111.111,0,0,0,.112-.111m-22.564,0a.112.112,0,1,0-.112.111A.111.111,0,0,0,398.257,104.956Zm22.077.037v-.263H398.481v.263Z" transform="translate(-395.968 -90.631)" fill-rule="evenodd" fill="url(#linear-gradient)"/>
  </g>
</svg>
