<svg id="Grupo_17" data-name="Grupo 17" xmlns="http://www.w3.org/2000/svg" width="204" height="24.567" viewBox="0 0 204 24.567">
  <text id="Currículum_Vitae" data-name="Currículum Vitae" transform="translate(22 17)" fill="#fff" font-size="16" font-family="SegoeUI-Semilight, Segoe UI" font-weight="300" letter-spacing="0.1em"><tspan x="0" y="0">CURRÍCULUM VITAE</tspan></text>
  <text id="_PDF_" data-name="(PDF)" transform="translate(190 17)" fill="#fff" font-size="5" font-family="SegoeUI-Semilight, Segoe UI" font-weight="300" letter-spacing="0.1em"><tspan x="0" y="0">(PDF)</tspan></text>
  <path id="Caminho_10" data-name="Caminho 10" d="M594.067,105.914a.961.961,0,1,0-.96.96.96.96,0,0,0,.96-.96m-194.111,0a.961.961,0,1,0-.96.96A.961.961,0,0,0,399.956,105.914Zm189.922.317V105.6h-188v.636Z" transform="translate(-398.034 -82.308)" fill="#fff" fill-rule="evenodd"/>
  <path id="solid_download" data-name="solid download" d="M4.705,0H6.448a.522.522,0,0,1,.523.523v3.66h1.91a.435.435,0,0,1,.307.743L5.875,8.241a.422.422,0,0,1-.595,0L1.963,4.925a.435.435,0,0,1,.307-.743H4.182V.523A.522.522,0,0,1,4.705,0Zm6.448,8.19v2.44a.522.522,0,0,1-.523.523H.523A.522.522,0,0,1,0,10.63V8.19a.522.522,0,0,1,.523-.523h3.2L4.786,8.735a1.116,1.116,0,0,0,1.581,0L7.435,7.668h3.2A.522.522,0,0,1,11.153,8.19Zm-2.7,1.917a.436.436,0,1,0-.436.436A.437.437,0,0,0,8.452,10.107Zm1.394,0a.436.436,0,1,0-.436.436A.437.437,0,0,0,9.846,10.107Z" transform="translate(0 7)" fill="#fff"/>
</svg>
